<svg width="58" height="58" xmlns="http://www.w3.org/2000/svg"><defs><linearGradient x1="49.93%" y1="-.01%" x2="49.93%" y2="100.023%" id="a"><stop stop-color="#00CBCB" offset="0%"/><stop stop-color="#0FC8B2" offset="16.17%"/><stop stop-color="#28C48B" offset="44.97%"/><stop stop-color="#31C27C" offset="60%"/><stop stop-color="#21C077" offset="70%"/><stop stop-color="#09BD71" offset="88.57%"/><stop stop-color="#00BC6E" offset="100%"/></linearGradient></defs><g fill-rule="nonzero" fill="none"><path d="M45.63 6.173L44.72.271l-3.17 3.426C37.776 1.832 33.529.747 29.01.747 13.37.746.696 13.498.696 29.236c0 15.738 12.675 28.492 28.316 28.492 15.64 0 28.315-12.754 28.315-28.492A28.294 28.294 0 0 0 45.63 6.173z" fill="#FFDC00"/><path d="M40.215 38.43L28.518 18.18C34.417 15.094 41.53 8.683 44.36.271 37.046 5.664 27.844 6.987 19.72 6.92c-1.146 0-1.854 1.221-1.281 2.205l2.36 4.104 11.562 20.08a14.409 14.409 0 0 0-4.383-.272c-7.078.61-12.404 6.038-11.865 12.075.54 6.038 6.708 10.413 13.787 9.802 7.079-.61 12.405-6.037 11.865-12.074a10.166 10.166 0 0 0-1.55-4.41z" fill="url(#a)" transform="translate(.392)"/></g></svg>