<svg width="228" height="63" xmlns="http://www.w3.org/2000/svg" xmlns:xlink="http://www.w3.org/1999/xlink"><defs><path id="a" d="M0 .156h61.24v61.683H0z"/><linearGradient x1="49.93%" y1="-.01%" x2="49.93%" y2="100.023%" id="d"><stop stop-color="#00CBCB" offset="0%"/><stop stop-color="#0FC8B2" offset="16.17%"/><stop stop-color="#28C48B" offset="44.97%"/><stop stop-color="#31C27C" offset="60%"/><stop stop-color="#21C077" offset="70%"/><stop stop-color="#09BD71" offset="88.57%"/><stop stop-color="#00BC6E" offset="100%"/></linearGradient><path d="M21.252 7.141a1.581 1.581 0 0 0-1.379 2.376l2.553 4.403 12.507 21.573a16.201 16.201 0 0 0-4.753-.28c-7.664.67-13.417 6.467-12.849 12.947.569 6.48 7.242 11.19 14.906 10.52 7.664-.67 13.417-6.467 12.848-12.947-.151-1.731-.738-3.145-1.669-4.745l-12.65-21.752C37.14 15.916 44.825 9.023 47.885 0c-7.898 5.778-17.88 7.208-26.634 7.141" id="c"/></defs><g fill="none" fill-rule="evenodd"><path fill="#000" d="M186.358 14.2l-14.224-.038-.906-3.006-5.178-.014.906 3.006-14.66-.04-.01 3.791 34.062.092zM179.712 39.194l-21.13-.056.011-4.03 20.066.054a1.062 1.062 0 0 1 1.06 1.064l-.007 2.968zm-.022 7.82l-21.128-.056.01-4.03 21.13.057-.012 4.03zm2.416-15.634l-28.003-.075-.02 7.82-.01 3.792-.022 7.82 30.13.08.046-17.308a2.125 2.125 0 0 0-2.12-2.129zM181.48 19.76l-4.49-.012-2.359 5.348-10.892-.029-2.33-5.36-4.49-.012 2.33 5.36-8.951-.023-.011 3.79 37.775.101.01-3.79-8.952-.025zM191.51 49.006l4.854.013 5.455-12.838-4.854-.013zM221.74 36.234l-4.854-.013 5.386 12.867 4.854.013z"/><path d="M225.163 33.044l.01-3.79-12.903-.035.025-9.134-4.24-.87-.027 9.992-9.083-.024a1.062 1.062 0 0 1-1.056-1.158l1.031-11.285 24.427-.679.01-3.79-28.228.783-.611-.002-1.608 17.596a2.124 2.124 0 0 0 2.111 2.315l12.997.036-.038 14.09-5.256-.013 1.143 3.794 8.345.022.048-17.882 12.903.034zM91.472 46.123l-3.655-.01c-5.85-.016-10.596-4.781-10.58-10.623l.025-9.374c.015-5.843 4.787-10.584 10.637-10.567l3.655.01c5.85.015 10.597 4.78 10.581 10.623l-.025 9.374a10.519 10.519 0 0 1-1.325 5.09l-3.83-5.457-5.432-.014 6.238 8.887a10.55 10.55 0 0 1-6.289 2.061m15.09-10.555l.025-9.374c.022-8.307-6.703-15.06-15.021-15.082l-3.655-.01c-8.318-.022-15.079 6.695-15.101 15.001l-.025 9.374c-.023 8.308 6.702 15.06 15.02 15.082l3.656.01a15.003 15.003 0 0 0 8.863-2.854l2.025 2.883 5.43.015-4.241-6.044a14.962 14.962 0 0 0 3.024-9.001M130.258 46.227l-3.654-.01c-5.85-.016-10.597-4.781-10.581-10.624l.025-9.373c.015-5.843 4.788-10.584 10.638-10.568l3.654.01c5.85.015 10.597 4.781 10.581 10.624l-.025 9.374a10.519 10.519 0 0 1-1.325 5.09l-3.83-5.457-5.432-.014 6.238 8.887a10.547 10.547 0 0 1-6.289 2.06zm16.308 4.49l-4.242-6.044a14.962 14.962 0 0 0 3.024-9.002l.025-9.373c.023-8.307-6.703-15.06-15.02-15.082l-3.656-.01c-8.317-.022-15.079 6.694-15.101 15.001l-.025 9.374c-.023 8.308 6.703 15.06 15.02 15.082l3.656.01a15.003 15.003 0 0 0 8.864-2.854l2.024 2.883 5.43.015z" fill="#000"/><mask id="b" fill="#fff"><use xlink:href="#a"/></mask><path d="M48.566 6.48L47.59.157l-3.412 3.677A30.524 30.524 0 0 0 30.62.678C13.71.678 0 14.37 0 31.258c0 16.89 13.71 30.58 30.62 30.58s30.62-13.69 30.62-30.58c0-10.193-4.996-19.22-12.674-24.777" fill="#FFDC00" mask="url(#b)"/><use fill="url(#d)" xlink:href="#c"/></g></svg>